
<!-- Generator: visioncortex VTracer 0.6.4 -->
<svg version="1.1" xmlns="http://www.w3.org/2000/svg" viewBox="0 0 512 512" preserveAspectRatio="xMidYMid meet">
<path d="M0 0 C3.9 1.693 7.073 4.248 10.375 6.875 C11.292 7.6 11.292 7.6 12.228 8.339 C17.843 12.811 23.282 17.477 28.711 22.172 C32.411 25.366 36.187 28.461 39.98 31.543 C43.708 34.576 47.417 37.631 51.125 40.688 C52.596 41.9 54.068 43.112 55.539 44.324 C56.278 44.933 57.017 45.542 57.778 46.169 C61.352 49.114 64.926 52.057 68.5 55 C69.917 56.167 71.333 57.333 72.75 58.5 C73.802 59.366 73.802 59.366 74.875 60.25 C77 62 79.125 63.75 81.25 65.5 C81.952 66.078 82.653 66.655 83.376 67.251 C84.789 68.415 86.203 69.579 87.616 70.743 C91.205 73.7 94.796 76.655 98.391 79.605 C104.942 84.987 111.48 90.381 117.938 95.875 C122.286 99.574 126.695 103.182 131.168 106.73 C137.08 111.468 142.902 116.317 148.745 121.14 C150.967 122.973 153.192 124.801 155.418 126.629 C162.654 132.572 169.871 138.531 176.979 144.626 C179.259 146.572 181.5 148.334 184 150 C184.383 152.754 184.383 152.754 184.394 156.337 C184.401 156.994 184.407 157.652 184.413 158.33 C184.43 160.544 184.425 162.757 184.42 164.971 C184.427 166.555 184.436 168.138 184.446 169.721 C184.468 174.031 184.471 178.342 184.469 182.652 C184.469 186.25 184.477 189.848 184.486 193.446 C184.505 201.939 184.508 210.432 184.501 218.925 C184.494 227.681 184.517 236.436 184.554 245.192 C184.585 252.71 184.596 260.227 184.592 267.745 C184.59 272.235 184.596 276.724 184.62 281.214 C184.643 285.441 184.641 289.667 184.62 293.895 C184.617 295.443 184.622 296.991 184.636 298.538 C184.77 313.999 184.77 313.999 179 320 C174.199 324.178 170.145 326.126 163.78 326.12 C162.699 326.122 161.618 326.123 160.504 326.124 C159.318 326.121 158.131 326.117 156.909 326.114 C155.661 326.114 154.412 326.114 153.125 326.114 C149.7 326.113 146.274 326.108 142.849 326.101 C139.269 326.095 135.69 326.095 132.111 326.093 C125.332 326.09 118.553 326.082 111.775 326.072 C102.615 326.059 93.456 326.053 84.296 326.048 C69.864 326.038 55.432 326.018 41 326 C41 285.74 41 245.48 41 204 C14.6 204 -11.8 204 -39 204 C-39 244.26 -39 284.52 -39 326 C-70.777 326.161 -70.777 326.161 -84.109 326.195 C-93.309 326.219 -102.509 326.247 -111.709 326.302 C-118.41 326.342 -125.11 326.367 -131.811 326.376 C-135.357 326.382 -138.903 326.394 -142.449 326.423 C-146.413 326.455 -150.377 326.456 -154.342 326.454 C-156.094 326.476 -156.094 326.476 -157.882 326.498 C-165.142 326.461 -171.042 325.685 -176.516 320.588 C-181.031 315.519 -182.242 311.021 -182.328 304.361 C-182.339 303.707 -182.35 303.053 -182.361 302.379 C-182.395 300.195 -182.414 298.012 -182.433 295.828 C-182.454 294.259 -182.475 292.689 -182.498 291.12 C-182.565 285.974 -182.611 280.827 -182.652 275.68 C-182.663 274.364 -182.663 274.364 -182.674 273.022 C-182.741 264.743 -182.8 256.463 -182.838 248.184 C-182.887 237.613 -182.98 227.045 -183.132 216.475 C-183.235 209.032 -183.288 201.59 -183.304 194.146 C-183.316 189.705 -183.349 185.267 -183.436 180.827 C-183.517 176.644 -183.535 172.466 -183.507 168.283 C-183.507 166.756 -183.53 165.228 -183.577 163.701 C-183.902 152.509 -183.902 152.509 -180.714 148.303 C-177.187 144.662 -173.184 141.834 -169 139 C-167.711 137.992 -166.428 136.975 -165.16 135.941 C-164.138 135.156 -163.116 134.371 -162.062 133.562 C-156.582 129.313 -151.29 124.883 -146.046 120.347 C-140.781 115.793 -135.408 111.382 -130 107 C-124.096 102.203 -118.233 97.365 -112.438 92.438 C-107.963 88.634 -103.433 84.919 -98.832 81.27 C-92.914 76.527 -87.086 71.674 -81.238 66.847 C-78.363 64.474 -75.486 62.105 -72.609 59.736 C-71.201 58.577 -69.793 57.418 -68.385 56.258 C-64.796 53.301 -61.204 50.346 -57.609 47.395 C-51.058 42.013 -44.52 36.619 -38.062 31.125 C-33.729 27.439 -29.338 23.842 -24.879 20.309 C-20.205 16.561 -15.594 12.738 -10.976 8.923 C-7.339 5.92 -3.694 2.932 0 0 Z " fill="#000000" transform="translate(255,134)"/>
<path d="M0 0 C7.017 4.874 13.367 10.611 19.777 16.242 C23.663 19.649 27.653 22.915 31.668 26.168 C34.78 28.713 37.847 31.306 40.91 33.91 C44.857 37.265 48.827 40.582 52.848 43.848 C57.792 47.871 62.637 52 67.465 56.162 C68.02 56.641 68.576 57.12 69.148 57.613 C69.634 58.033 70.119 58.452 70.618 58.884 C73.198 61.081 75.805 63.244 78.41 65.41 C78.416 64.647 78.422 63.883 78.428 63.097 C78.486 55.888 78.558 48.679 78.646 41.47 C78.691 37.764 78.73 34.058 78.757 30.352 C78.783 26.773 78.823 23.194 78.873 19.615 C78.89 18.252 78.902 16.889 78.908 15.527 C78.917 13.612 78.947 11.697 78.978 9.783 C78.989 8.695 79 7.607 79.011 6.485 C79.477 2.895 80.532 0.494 82.41 -2.59 C86.043 -5.012 87.77 -4.853 92.097 -4.88 C92.772 -4.887 93.447 -4.894 94.143 -4.901 C96.375 -4.92 98.607 -4.924 100.84 -4.926 C102.393 -4.932 103.946 -4.939 105.499 -4.946 C108.756 -4.958 112.012 -4.962 115.269 -4.96 C119.438 -4.96 123.606 -4.988 127.774 -5.022 C130.983 -5.044 134.191 -5.048 137.4 -5.047 C138.936 -5.05 140.473 -5.058 142.009 -5.074 C144.162 -5.094 146.312 -5.088 148.464 -5.076 C149.688 -5.079 150.911 -5.081 152.172 -5.084 C156.02 -4.497 157.663 -3.293 160.41 -0.59 C161.702 1.995 161.533 3.843 161.53 6.738 C161.532 8.433 161.532 8.433 161.535 10.163 C161.531 11.409 161.527 12.654 161.524 13.938 C161.524 15.245 161.524 16.553 161.524 17.899 C161.524 21.49 161.519 25.081 161.512 28.671 C161.505 32.422 161.505 36.172 161.504 39.922 C161.5 47.027 161.492 54.131 161.482 61.235 C161.471 69.322 161.466 77.409 161.46 85.496 C161.45 102.134 161.432 118.772 161.41 135.41 C162.007 135.689 162.604 135.967 163.219 136.254 C166.529 138.001 169.179 140.514 171.973 142.973 C173.232 144.067 174.493 145.161 175.754 146.254 C176.375 146.793 176.997 147.332 177.637 147.887 C180.048 149.958 182.505 151.969 184.973 153.973 C189.017 157.256 193.006 160.597 196.973 163.973 C200.741 167.178 204.533 170.337 208.41 173.41 C213.503 177.448 218.46 181.637 223.406 185.852 C225.184 187.366 226.967 188.876 228.758 190.375 C234.165 194.916 234.165 194.916 234.719 198.293 C235.038 203.85 234.09 206.808 230.523 211.039 C229.826 211.822 229.129 212.604 228.41 213.41 C227.443 214.542 226.478 215.677 225.516 216.812 C222.975 219.804 220.414 222.777 217.838 225.737 C216.888 226.85 215.958 227.978 215.047 229.122 C211.798 233.202 209.667 234.672 204.41 235.41 C199.843 234.275 196.904 232.513 193.348 229.473 C192.398 228.67 191.448 227.866 190.469 227.039 C189.449 226.163 188.43 225.286 187.41 224.41 C185.795 223.039 184.177 221.672 182.559 220.304 C181.454 219.37 180.351 218.435 179.248 217.498 C175.831 214.598 172.386 211.739 168.91 208.91 C164.306 205.162 159.77 201.34 155.246 197.496 C151.83 194.598 148.385 191.739 144.91 188.91 C140.306 185.162 135.77 181.34 131.246 177.496 C127.83 174.598 124.385 171.739 120.91 168.91 C116.306 165.162 111.77 161.34 107.246 157.496 C103.83 154.598 100.385 151.739 96.91 148.91 C92.306 145.162 87.77 141.34 83.246 137.496 C79.83 134.598 76.385 131.739 72.91 128.91 C68.306 125.162 63.77 121.34 59.246 117.496 C55.83 114.598 52.385 111.739 48.91 108.91 C44.306 105.162 39.77 101.34 35.246 97.496 C31.83 94.598 28.385 91.739 24.91 88.91 C20.306 85.162 15.77 81.34 11.246 77.496 C6.958 73.858 2.614 70.292 -1.754 66.75 C-3.857 65.015 -5.929 63.262 -7.988 61.477 C-8.566 60.978 -9.145 60.479 -9.74 59.965 C-10.861 58.995 -11.977 58.02 -13.088 57.039 C-16.102 54.437 -18.791 52.637 -22.59 51.41 C-23.401 52.1 -24.211 52.789 -25.047 53.5 C-30.361 58.012 -35.683 62.509 -41.09 66.91 C-45.13 70.198 -49.121 73.537 -53.09 76.91 C-57.939 81.031 -62.841 85.08 -67.777 89.098 C-70.908 91.672 -74.002 94.286 -77.09 96.91 C-81.939 101.031 -86.841 105.08 -91.777 109.098 C-94.908 111.672 -98.002 114.286 -101.09 116.91 C-105.939 121.031 -110.841 125.08 -115.777 129.098 C-118.908 131.672 -122.002 134.286 -125.09 136.91 C-129.939 141.031 -134.841 145.08 -139.777 149.098 C-142.908 151.672 -146.002 154.286 -149.09 156.91 C-153.939 161.031 -158.841 165.08 -163.777 169.098 C-166.908 171.672 -170.002 174.286 -173.09 176.91 C-177.939 181.031 -182.841 185.08 -187.777 189.098 C-190.908 191.672 -194.002 194.286 -197.09 196.91 C-201.939 201.031 -206.841 205.08 -211.777 209.098 C-214.908 211.672 -218.001 214.286 -221.09 216.91 C-225.24 220.43 -229.398 223.94 -233.59 227.41 C-234.435 228.111 -235.281 228.813 -236.152 229.535 C-240.458 232.847 -244.058 235.184 -249.59 235.41 C-255.216 233.294 -258.243 229.849 -261.965 225.348 C-262.528 224.681 -263.092 224.014 -263.673 223.327 C-265.325 221.365 -266.96 219.391 -268.59 217.41 C-269.262 216.595 -269.262 216.595 -269.948 215.764 C-278.115 205.823 -278.115 205.823 -277.98 198.773 C-276.803 191.652 -268.907 187.058 -263.648 182.863 C-260.412 180.268 -257.247 177.601 -254.09 174.91 C-249.241 170.788 -244.338 166.74 -239.402 162.723 C-236.272 160.149 -233.178 157.534 -230.09 154.91 C-225.24 150.789 -220.338 146.74 -215.402 142.723 C-212.272 140.149 -209.178 137.534 -206.09 134.91 C-201.24 130.789 -196.338 126.74 -191.402 122.723 C-188.272 120.149 -185.178 117.534 -182.09 114.91 C-177.24 110.789 -172.338 106.74 -167.402 102.723 C-164.272 100.149 -161.178 97.534 -158.09 94.91 C-153.24 90.789 -148.338 86.74 -143.402 82.723 C-140.272 80.149 -137.178 77.534 -134.09 74.91 C-129.24 70.789 -124.338 66.74 -119.402 62.723 C-116.272 60.149 -113.178 57.534 -110.09 54.91 C-105.237 50.786 -100.332 46.734 -95.391 42.715 C-92.322 40.19 -89.299 37.615 -86.277 35.035 C-81.281 30.774 -76.163 26.704 -70.97 22.685 C-66.455 19.161 -62.138 15.444 -57.84 11.66 C-40.927 -3.122 -21.369 -13.118 0 0 Z " fill="#000000" transform="translate(277.58984375,57.58984375)"/>
</svg>